<svg xmlns="http://www.w3.org/2000/svg" version="1.1" xmlns:xlink="http://www.w3.org/1999/xlink" width="1000" height="1000"><g clip-path="url(#SvgjsClipPath1158)"><rect width="1000" height="1000" fill="#000000"></rect><g transform="matrix(12.280701754385966,0,0,12.280701754385966,150,150)"><svg xmlns="http://www.w3.org/2000/svg" version="1.1" xmlns:xlink="http://www.w3.org/1999/xlink" width="57" height="57"><svg width="57" height="57" viewBox="0 0 57 57" fill="none" xmlns="http://www.w3.org/2000/svg">
<path d="M15.9448 57L21.9284 50.9708C23.9114 49.1459 26.1135 48.2334 28.5346 48.2334C30.8404 48.2334 32.9502 49.1459 34.8641 50.9708C35.6019 51.6176 37.6311 53.6274 40.9515 57C43.8799 55.6371 46.6699 53.7775 49.3216 51.4213L43.8914 46.1544C41.9314 44.2602 39.6256 43.2207 36.9739 43.0359H28.5346C22.8392 43.0359 19.9684 43.0359 19.9223 43.0359C17.2706 43.2207 14.9763 44.2602 13.0394 46.1544L7.71298 51.5252C10.2725 53.9046 13.0164 55.7295 15.9448 57ZM10.895 12.9593L5.56857 7.58845C3.14745 10.1295 1.29126 12.89 0 15.8699L5.98362 21.8991C7.78216 23.8395 8.68143 26.034 8.68143 28.4827C8.68143 30.7927 7.78216 32.8948 5.98362 34.7891C5.36104 35.5745 3.3665 37.6073 0 40.8875C1.33738 43.8675 3.19357 46.6511 5.56857 49.2383L10.895 43.7982C12.7397 41.8578 13.7658 39.5477 13.9733 36.8681V28.4827C13.9733 22.8 13.9733 19.9125 13.9733 19.8201C13.7658 17.1866 12.7397 14.8997 10.895 12.9593ZM51.5006 7.58845L46.105 12.9593C44.2603 14.8997 43.2573 17.2328 43.0959 19.9587V28.4134C43.0959 34.0498 43.0959 36.9143 43.0959 37.0067C43.2573 39.5939 44.2603 41.8578 46.105 43.7982L51.5006 49.2383C53.8525 46.7435 55.6857 43.9599 57 40.8875L50.9126 34.9277C49.1371 32.9641 48.2494 30.7927 48.2494 28.4134C48.2494 26.0109 49.1371 23.8395 50.9126 21.8991C51.6274 21.2523 53.6566 19.2426 57 15.8699C55.6626 12.89 53.8295 10.1295 51.5006 7.58845ZM43.8914 10.8109L49.3216 5.54407C46.7621 3.14164 43.9721 1.29362 40.9515 0L34.9333 6.06383C32.9964 7.81945 30.8404 8.70882 28.4654 8.73192C26.0904 8.73192 23.9575 7.84255 22.0667 6.06383C21.3519 5.39392 19.3113 3.37264 15.9448 0C13.0164 1.36292 10.2725 3.21094 7.71298 5.54407L13.0394 10.8109C14.9763 12.7514 17.2937 13.8024 19.9915 13.9641H28.4654C34.1377 13.9641 36.997 13.9641 37.0431 13.9641C39.6487 13.8024 41.9314 12.7514 43.8914 10.8109Z" fill="white"></path>
</svg></svg></g></g><defs><clipPath id="SvgjsClipPath1158"><rect width="1000" height="1000" x="0" y="0" rx="500" ry="500"></rect></clipPath></defs></svg>