<svg width="68" height="67" viewBox="0 0 68 67" fill="none" xmlns="http://www.w3.org/2000/svg">
<path d="M18.769 66.9227L25.8125 59.844C28.1467 57.7014 30.7388 56.6301 33.5888 56.6301C36.303 56.6301 38.7865 57.7014 41.0394 59.844C41.9079 60.6034 44.2964 62.963 48.205 66.9227C51.652 65.3226 54.9363 63.1393 58.0577 60.3729L51.6656 54.1891C49.3585 51.9651 46.6443 50.7447 43.5229 50.5277H33.5888C26.8846 50.5277 23.5053 50.5277 23.4511 50.5277C20.3297 50.7447 17.629 51.9651 15.349 54.1891L9.07914 60.4949C12.092 63.2884 15.3219 65.431 18.769 66.9227ZM12.8248 15.2153L6.5549 8.90947C3.70494 11.8929 1.51998 15.1339 0 18.6326L7.04346 25.7114C9.16057 27.9896 10.2191 30.5661 10.2191 33.441C10.2191 36.1532 9.16057 38.6213 7.04346 40.8452C6.31061 41.7674 3.96279 44.1541 0 48.0054C1.57426 51.5041 3.75923 54.7722 6.5549 57.8099L12.8248 51.4227C14.9962 49.1445 16.204 46.4323 16.4483 43.2862V33.441C16.4483 26.7691 16.4483 23.3789 16.4483 23.2704C16.204 20.1785 14.9962 17.4935 12.8248 15.2153ZM60.6226 8.90947L54.2713 15.2153C52.0999 17.4935 50.9192 20.2328 50.7292 23.4331V33.3597C50.7292 39.9774 50.7292 43.3404 50.7292 43.4489C50.9192 46.4866 52.0999 49.1445 54.2713 51.4227L60.6226 57.8099C63.3911 54.8807 65.549 51.6126 67.0961 48.0054L59.9305 41.008C57.8405 38.7026 56.7955 36.1532 56.7955 33.3597C56.7955 30.539 57.8405 27.9896 59.9305 25.7114C60.7719 24.9519 63.1604 22.5924 67.0961 18.6326C65.5218 15.1339 63.364 11.8929 60.6226 8.90947ZM51.6656 12.6929L58.0577 6.5092C55.0448 3.68855 51.7606 1.51881 48.205 0L41.1208 7.11944C38.8408 9.18069 36.303 10.2249 33.5073 10.252C30.7117 10.252 28.201 9.20781 25.9753 7.11944C25.1339 6.33291 22.7318 3.95976 18.769 0C15.3219 1.60018 12.092 3.76991 9.07914 6.5092L15.349 12.6929C17.629 14.9712 20.3568 16.2052 23.5325 16.3951H33.5073C40.1844 16.3951 43.55 16.3951 43.6043 16.3951C46.6714 16.2052 49.3585 14.9712 51.6656 12.6929Z" fill="black"/>
</svg>
