<svg width="324" height="67" viewBox="0 0 324 67" fill="none" xmlns="http://www.w3.org/2000/svg">
<path d="M18.769 66.9227L25.8125 59.844C28.1467 57.7014 30.7388 56.6301 33.5888 56.6301C36.303 56.6301 38.7865 57.7014 41.0394 59.844C41.9079 60.6034 44.2964 62.963 48.205 66.9227C51.652 65.3226 54.9363 63.1393 58.0577 60.3729L51.6656 54.1891C49.3585 51.9651 46.6443 50.7447 43.5229 50.5277H33.5888C26.8846 50.5277 23.5053 50.5277 23.4511 50.5277C20.3297 50.7447 17.629 51.9651 15.349 54.1891L9.07914 60.4949C12.092 63.2884 15.3219 65.431 18.769 66.9227ZM12.8248 15.2153L6.5549 8.90947C3.70494 11.8929 1.51998 15.1339 0 18.6326L7.04346 25.7114C9.16057 27.9896 10.2191 30.5661 10.2191 33.441C10.2191 36.1532 9.16057 38.6213 7.04346 40.8452C6.31061 41.7674 3.96279 44.1541 0 48.0054C1.57426 51.5041 3.75923 54.7722 6.5549 57.8099L12.8248 51.4227C14.9962 49.1445 16.204 46.4323 16.4483 43.2862V33.441C16.4483 26.7691 16.4483 23.3789 16.4483 23.2704C16.204 20.1785 14.9962 17.4935 12.8248 15.2153ZM60.6226 8.90947L54.2713 15.2153C52.0999 17.4935 50.9192 20.2328 50.7292 23.4331V33.3597C50.7292 39.9774 50.7292 43.3404 50.7292 43.4489C50.9192 46.4866 52.0999 49.1445 54.2713 51.4227L60.6226 57.8099C63.3911 54.8807 65.549 51.6126 67.0961 48.0054L59.9305 41.008C57.8405 38.7026 56.7955 36.1532 56.7955 33.3597C56.7955 30.539 57.8405 27.9896 59.9305 25.7114C60.7719 24.9519 63.1604 22.5924 67.0961 18.6326C65.5218 15.1339 63.364 11.8929 60.6226 8.90947ZM51.6656 12.6929L58.0577 6.5092C55.0448 3.68855 51.7606 1.51881 48.205 0L41.1208 7.11944C38.8408 9.18069 36.303 10.2249 33.5073 10.252C30.7117 10.252 28.201 9.20781 25.9753 7.11944C25.1339 6.33291 22.7318 3.95976 18.769 0C15.3219 1.60018 12.092 3.76991 9.07914 6.5092L15.349 12.6929C17.629 14.9712 20.3568 16.2052 23.5325 16.3951H33.5073C40.1844 16.3951 43.55 16.3951 43.6043 16.3951C46.6714 16.2052 49.3585 14.9712 51.6656 12.6929Z" fill="black"/>
<path d="M199.782 29.4135C199.782 26.864 199.266 24.5451 198.235 22.4567C197.203 20.3412 195.507 18.6461 193.146 17.3714C190.811 16.0696 187.717 15.3915 183.863 15.3373C180.796 15.3915 178.109 16.0018 175.801 17.168C173.549 18.2529 171.744 19.731 170.387 21.6024C169.084 23.4196 168.31 25.4266 168.066 27.6234L176.249 29.4948C176.466 27.5692 177.199 25.9554 178.448 24.6536C179.751 23.3789 181.583 22.728 183.944 22.7008C186.387 22.728 188.178 23.2704 189.318 24.3281C190.458 25.413 191.028 26.7691 191.028 28.3964C191.028 29.0744 190.852 29.644 190.499 30.105C190.065 30.5932 189.305 30.9323 188.219 31.1221L178.611 32.546C176.466 32.8443 174.539 33.4681 172.829 34.4174C171.147 35.3395 169.817 36.5871 168.839 38.1602C167.862 39.7061 167.347 41.6046 167.292 43.8557C167.347 45.8899 167.862 47.7477 168.839 49.4292C169.871 51.1379 171.323 52.5076 173.196 53.5382C175.096 54.5959 177.376 55.1519 180.036 55.2062C180.389 55.2062 180.741 55.2062 181.094 55.2062C181.366 55.1519 181.651 55.1248 181.949 55.1248H190.581V46.4594H199.782V29.4135ZM191.028 36.7363V38.445C190.974 40.8588 190.54 42.798 189.726 44.2626C188.884 45.6729 187.758 46.69 186.346 47.3138C184.962 47.8833 183.429 48.1681 181.746 48.1681C179.9 48.1139 178.543 47.6121 177.674 46.6628C176.724 45.7407 176.249 44.6152 176.249 43.2862C176.249 41.7945 176.751 40.6283 177.756 39.7875C178.624 38.9738 179.791 38.4585 181.257 38.2416L191.028 36.7363ZM237.931 24.2061V16.5171H208.21V24.4095H226.775L208.21 45.6865V54.0264H237.931V46.134H218.795L237.931 24.2061ZM280.395 37.672C280.395 37.5635 280.449 37.2516 280.558 36.7363C280.585 36.221 280.598 35.5972 280.598 34.8649C280.571 30.9051 279.852 27.4743 278.441 24.5722C276.975 21.6431 274.871 19.3784 272.13 17.7783C269.416 16.2052 266.131 15.3915 262.277 15.3373C259.074 15.3915 256.089 16.2323 253.32 17.8596C250.579 19.4598 248.353 21.7516 246.643 24.735C244.96 27.637 244.092 31.095 244.038 35.109C244.092 39.34 244.974 42.9607 246.684 45.9712C246.847 46.2967 247.037 46.5815 247.254 46.8256C248.964 49.375 251.122 51.3549 253.727 52.7652C256.604 54.3383 259.753 55.1519 263.173 55.2062C266.213 55.1519 268.846 54.5959 271.071 53.5382C273.433 52.5076 275.36 51.1108 276.853 49.3479C277.423 48.6427 277.979 47.8019 278.522 46.8256C279.146 45.5237 279.689 43.9642 280.151 42.1471H272.211C271.56 43.476 270.637 44.6151 269.443 45.5644C268.764 46.1068 267.991 46.5272 267.122 46.8256C266.009 47.2053 264.693 47.4087 263.173 47.4358C261.87 47.4358 260.649 47.2324 259.509 46.8256C259.047 46.6628 258.586 46.4594 258.124 46.2153C256.605 45.3746 255.383 44.2219 254.46 42.7573C253.565 41.2927 253.062 39.5976 252.954 37.672H280.395ZM257.554 24.084C258.857 23.3246 260.445 22.9178 262.318 22.8636C264.354 22.9178 266.05 23.2975 267.407 24.0027C268.764 24.7892 269.782 25.8063 270.461 27.0539C271.139 28.3015 271.506 29.6575 271.56 31.1221H253.198C253.28 29.766 253.7 28.4642 254.46 27.2166C255.166 25.969 256.197 24.9248 257.554 24.084ZM132.197 18.2258C132.197 17.8732 132.197 17.5206 132.197 17.168H119.82C119.576 17.4664 119.372 17.7918 119.21 18.1444C118.612 18.9852 118.083 19.8802 117.622 20.8294C113.415 27.7997 109.18 34.7971 104.919 41.8216H104.715C104.715 38.4314 104.715 35.0276 104.715 31.6103C104.688 28.3286 104.675 25.0197 104.675 21.6838C104.675 20.165 104.675 18.6597 104.675 17.168H95.1885C95.1885 18.6597 95.1885 20.165 95.1885 21.6838C95.1885 25.0197 95.1885 28.3286 95.1885 31.6103C95.1885 39.4485 95.1885 47.3138 95.1885 55.2062H105.53C111.257 45.8221 116.957 36.4108 122.629 26.9725H122.711C122.819 36.3566 122.874 45.7678 122.874 55.2062H133.256C138.847 45.7136 144.533 36.3837 150.315 27.2166H150.396C150.559 36.5465 150.64 45.8763 150.64 55.2062H159.679C159.679 43.6795 159.679 32.2205 159.679 20.8294C159.679 19.9344 159.679 19.0665 159.679 18.2258C159.679 17.8732 159.679 17.5206 159.679 17.168H147.506C147.234 17.5206 146.99 17.8732 146.773 18.2258C146.311 19.0665 145.823 19.9344 145.307 20.8294C141.073 27.7455 136.852 34.6751 132.645 41.6182H132.482C132.482 34.5123 132.414 27.5827 132.279 20.8294C132.224 19.9344 132.197 19.0665 132.197 18.2258ZM315.124 20.9108C314.744 20.1243 314.106 19.3106 313.21 18.4699C312.287 17.6562 311.093 16.951 309.627 16.3544C308.107 15.8391 306.262 15.5543 304.09 15.5C300.535 15.5543 297.427 16.4629 294.767 18.2258C292.107 20.0158 290.017 22.3618 288.497 25.2638C287.004 28.2201 286.258 31.5018 286.258 35.109C286.258 38.9603 287.004 42.3776 288.497 45.361C288.768 45.8763 289.067 46.3645 289.393 46.8256C290.75 49.1309 292.541 50.9616 294.767 52.3177C297.481 54.0806 300.63 54.9621 304.212 54.9621C306.927 54.9078 309.22 54.3247 311.093 53.2127C311.364 53.0771 311.609 52.9551 311.826 52.8466C312.124 52.5754 312.436 52.3448 312.762 52.155C312.871 52.0465 312.979 51.9651 313.088 51.9109C313.224 51.7482 313.346 51.6126 313.454 51.5041C313.509 51.5041 313.536 51.4905 313.536 51.4634C313.807 51.1922 314.065 50.8938 314.309 50.5683C314.526 50.3243 314.73 50.0395 314.92 49.714C315.056 49.5513 315.137 49.4292 315.164 49.3479C315.217 49.2953 315.244 49.2411 315.246 49.1852V49.4699C315.246 50.2022 315.3 50.9887 315.409 51.8295C315.463 52.8059 315.544 53.5382 315.653 54.0264H323.673V5.49213H315.124V20.9108ZM295.174 35.109C295.228 31.5018 296.192 28.6676 298.065 26.6064C299.937 24.5722 302.353 23.528 305.312 23.4738C308.297 23.4738 310.672 24.518 312.436 26.6064C314.228 28.6405 315.137 31.4747 315.164 35.109C315.137 37.8754 314.594 40.2214 313.536 42.1471L313.454 42.2284C313.346 42.3641 313.264 42.5132 313.21 42.676C313.156 42.7302 313.115 42.7844 313.088 42.8387C313.034 42.9472 312.952 43.0557 312.844 43.1641C312.844 43.2184 312.816 43.2591 312.762 43.2862C312.654 43.476 312.518 43.6388 312.355 43.7744C312.219 43.9913 312.07 44.1812 311.907 44.3439L311.826 44.4253C310.632 45.6458 309.193 46.4459 307.51 46.8256C306.804 46.9612 306.058 47.029 305.271 47.029C304.429 47.029 303.642 46.9612 302.909 46.8256C300.928 46.4187 299.259 45.4288 297.902 43.8557C296.137 41.6589 295.228 38.7433 295.174 35.109Z" fill="black"/>
</svg>
